# xmcd
#
# Track frame offsets: 
#        150
#        23932
#        45024
#        75160
#        99834
#        119296
#        139395
#        160230
#        186443
#
# Disc length: 2895 seconds
#
# Revision: 1
# Processed by: cddbd v1.5.2PL0 Copyright (c) Steve Scherf et al.
# Submitted via: ExactAudioCopyFreeDBPlugin 1.0
#
DISCID=640b4d09
DTITLE=Brass Construction - Attitudes [Japan Edit THCD 167 EMI Japan]
DYEAR=1982
DGENRE=Funk
TTITLE0=Can You See The Light
TTITLE1=Funtimes
TTITLE2=Attitude
TTITLE3=Do That Thang
TTITLE4=Forever Love
TTITLE5=E.T.C.
TTITLE6=Hotdog
TTITLE7=Can You See The Light (12'' Version)
TTITLE8=Can You See The Light (Special Remix Version - Instrumental)
EXTD=
EXTT0=
EXTT1=
EXTT2=
EXTT3=
EXTT4=
EXTT5=
EXTT6=
EXTT7=
EXTT8=
PLAYORDER=
